<svg width="24" height="24" viewBox="0 0 24 24" fill="none" xmlns="http://www.w3.org/2000/svg">
<path d="M15.107 3.85725C14.5499 3.85725 13.9284 4.42725 13.9284 5.35725C13.9284 6.28725 14.5499 6.85725 15.107 6.85725C15.6641 6.85725 16.2856 6.28725 16.2856 5.35725C16.2856 4.42725 15.6641 3.85725 15.107 3.85725ZM12.6427 5.35725C12.6427 3.92068 13.6524 2.57153 15.107 2.57153C16.5616 2.57153 17.5713 3.92068 17.5713 5.35725C17.5713 6.79382 16.5624 8.14296 15.107 8.14296C13.6516 8.14296 12.6427 6.79382 12.6427 5.35725ZM3.53557 6.85725C2.97843 6.85725 2.357 7.42725 2.357 8.35725C2.357 9.28725 2.97843 9.85725 3.53557 9.85725C4.09272 9.85725 4.71415 9.28725 4.71415 8.35725C4.71415 7.42725 4.09272 6.85725 3.53557 6.85725ZM1.07129 8.35725C1.07129 6.92068 2.081 5.57153 3.53557 5.57153C4.99015 5.57153 5.99986 6.92068 5.99986 8.35725C5.99986 9.79382 4.99015 11.143 3.53557 11.143C2.081 11.143 1.07129 9.79382 1.07129 8.35725ZM11.9999 10.7144C11.2385 10.7144 10.4851 10.8704 9.7864 11.1729C9.08766 11.4754 8.45834 11.9179 7.93729 12.4731C7.41624 13.0283 7.01451 13.6844 6.75691 14.4009C6.49932 15.1174 6.39131 15.8791 6.43957 16.639C6.49186 17.4832 6.95729 18.1252 7.69443 18.5795C8.447 19.0424 9.45586 19.2858 10.463 19.2858H13.5359C14.5439 19.2858 15.5527 19.0415 16.3044 18.5787C17.0424 18.1244 17.5079 17.4832 17.5601 16.639C17.6084 15.8791 17.5004 15.1174 17.2428 14.4009C16.9852 13.6844 16.5835 13.0283 16.0624 12.4731C15.5414 11.9179 14.9121 11.4754 14.2133 11.1729C13.5146 10.8704 12.7613 10.7144 11.9999 10.7144ZM5.14272 16.2858C5.14275 15.3671 5.32741 14.4577 5.68572 13.6117C6.04403 12.7658 6.56869 12.0004 7.22854 11.3611C7.88839 10.7219 8.66998 10.2217 9.52689 9.89038C10.3838 9.55904 11.2986 9.40329 12.2168 9.43236C13.1351 9.46143 14.0382 9.67473 14.8724 10.0596C15.7066 10.4445 16.455 10.9931 17.0731 11.6728C17.6912 12.3525 18.1664 13.1495 18.4705 14.0165C18.7746 14.8834 18.9014 15.8026 18.8433 16.7195C18.7593 18.0687 17.9896 19.0518 16.979 19.6741C15.9813 20.2878 14.7256 20.5715 13.5359 20.5715H10.4639C9.27329 20.5715 8.01843 20.2878 7.02072 19.6741C6.00929 19.0518 5.24043 18.0687 5.15643 16.7195C5.14729 16.5751 5.14271 16.4305 5.14272 16.2858ZM19.2856 8.35725C19.2856 7.42725 19.907 6.85725 20.4641 6.85725C21.0213 6.85725 21.6427 7.42725 21.6427 8.35725C21.6427 9.28725 21.0213 9.85725 20.4641 9.85725C19.907 9.85725 19.2856 9.28725 19.2856 8.35725ZM20.4641 5.57153C19.0087 5.57153 17.9999 6.92068 17.9999 8.35725C17.9999 9.79382 19.0087 11.143 20.4641 11.143C21.9196 11.143 22.9284 9.79382 22.9284 8.35725C22.9284 6.92068 21.9196 5.57153 20.4641 5.57153ZM7.71415 5.35725C7.71415 4.42725 8.33557 3.85725 8.89272 3.85725C9.44986 3.85725 10.0713 4.42725 10.0713 5.35725C10.0713 6.28725 9.44986 6.85725 8.89272 6.85725C8.33557 6.85725 7.71415 6.28725 7.71415 5.35725ZM8.89272 2.57153C7.43815 2.57153 6.42843 3.92068 6.42843 5.35725C6.42843 6.79382 7.43815 8.14296 8.89272 8.14296C10.3473 8.14296 11.357 6.79382 11.357 5.35725C11.357 3.92068 10.3473 2.57153 8.89272 2.57153Z" fill="#EF4444"/>
</svg>
