<svg width="20" height="20" viewBox="0 0 20 20" fill="none" xmlns="http://www.w3.org/2000/svg">
<path d="M1.66699 9.16659C1.66699 6.41673 1.66699 5.04179 2.52127 4.18753C3.37553 3.33325 4.75047 3.33325 7.50033 3.33325H8.33366C11.0835 3.33325 12.4584 3.33325 13.3127 4.18753C14.167 5.04179 14.167 6.41673 14.167 9.16659V10.8333C14.167 13.5831 14.167 14.958 13.3127 15.8123C12.4584 16.6666 11.0835 16.6666 8.33366 16.6666H7.50033C4.75047 16.6666 3.37553 16.6666 2.52127 15.8123C1.66699 14.958 1.66699 13.5831 1.66699 10.8333V9.16659Z" stroke="#E5E7EB"/>
<path d="M14.167 7.42163L14.2719 7.33505C16.0351 5.88028 16.9167 5.15288 17.6252 5.5041C18.3337 5.85532 18.3337 7.01971 18.3337 9.3485V10.6517C18.3337 12.9805 18.3337 14.1448 17.6252 14.4961C16.9167 14.8473 16.0351 14.1199 14.2719 12.6651L14.167 12.5785" stroke="#E5E7EB" stroke-linecap="round"/>
<path d="M9.58301 9.16675C10.2734 9.16675 10.833 8.6071 10.833 7.91675C10.833 7.22639 10.2734 6.66675 9.58301 6.66675C8.89265 6.66675 8.33301 7.22639 8.33301 7.91675C8.33301 8.6071 8.89265 9.16675 9.58301 9.16675Z" stroke="#E5E7EB"/>
</svg>
