<svg width="120" height="120" viewBox="0 0 120 120" fill="none" xmlns="http://www.w3.org/2000/svg">
<path d="M112.5 71.25L97.5 83.25V75C97.5 73.0109 96.7098 71.1032 95.3033 69.6967C93.8968 68.2902 91.9891 67.5 90 67.5H60C58.0109 67.5 56.1032 68.2902 54.6967 69.6967C53.2902 71.1032 52.5 73.0109 52.5 75V97.5C52.5 99.4891 53.2902 101.397 54.6967 102.803C56.1032 104.21 58.0109 105 60 105H90C91.9891 105 93.8968 104.21 95.3033 102.803C96.7098 101.397 97.5 99.4891 97.5 97.5V89.25L112.5 101.25V71.25ZM60 97.5V75H90L90.0075 97.5H60Z" fill="#161B22"/>
<path d="M45 105H30V15H60V37.5C60.0059 39.4873 60.798 41.3915 62.2033 42.7968C63.6085 44.202 65.5127 44.9941 67.5 45H90V56.25H97.5V37.5C97.5132 37.0072 97.4195 36.5173 97.2253 36.0642C97.0311 35.611 96.741 35.2053 96.375 34.875L70.125 8.62502C69.7963 8.25701 69.3909 7.96555 68.9374 7.77118C68.4838 7.5768 67.9932 7.48424 67.5 7.50002H30C28.0127 7.50595 26.1085 8.29803 24.7033 9.70327C23.298 11.1085 22.5059 13.0127 22.5 15V105C22.5059 106.987 23.298 108.892 24.7033 110.297C26.1085 111.702 28.0127 112.494 30 112.5H45V105ZM67.5 16.5L88.5 37.5H67.5V16.5Z" fill="#161B22"/>
</svg>
