<svg width="24" height="24" viewBox="0 0 24 24" fill="none" xmlns="http://www.w3.org/2000/svg">
<path d="M16 7.00007H16.01M3.4 18.0001H12C14.1217 18.0001 16.1566 17.1572 17.6569 15.6569C19.1571 14.1566 20 12.1218 20 10.0001V7.00007C20.0023 6.14798 19.7323 5.31743 19.2296 4.62946C18.7269 3.94148 18.0175 3.43203 17.205 3.17533C16.3925 2.91863 15.5193 2.9281 14.7125 3.20237C13.9058 3.47663 13.2077 4.00135 12.72 4.70007L2 20.0001" stroke="#8B5CF6" stroke-width="1.6" stroke-linecap="round" stroke-linejoin="round"/>
<path d="M20 7L22 7.5L20 8M10 18V21M14 17.75V21M7 18C8.23312 17.9999 9.43627 17.6199 10.4457 16.9117C11.4552 16.2035 12.2219 15.2014 12.6416 14.0419C13.0612 12.8824 13.1134 11.6217 12.7911 10.4315C12.4687 9.24127 11.7874 8.17926 10.84 7.39" stroke="#8B5CF6" stroke-width="1.6" stroke-linecap="round" stroke-linejoin="round"/>
</svg>
